<?xml version="1.0" encoding="UTF-8" standalone="no"?>
<!-- Created with Inkscape (http://www.inkscape.org/) -->

<svg
   xmlns:dc="http://purl.org/dc/elements/1.1/"
   xmlns:cc="http://creativecommons.org/ns#"
   xmlns:rdf="http://www.w3.org/1999/02/22-rdf-syntax-ns#"
   xmlns:svg="http://www.w3.org/2000/svg"
   xmlns="http://www.w3.org/2000/svg"
   xmlns:sodipodi="http://sodipodi.sourceforge.net/DTD/sodipodi-0.dtd"
   xmlns:inkscape="http://www.inkscape.org/namespaces/inkscape"
   width="125.78013"
   height="76.518867"
   viewBox="0 0 33.279323 20.245616"
   version="1.1"
   id="svg2289"
   inkscape:version="0.92.0 r15299"
   sodipodi:docname="iam roadsmart.svg">
  <defs
     id="defs2283">
    <clipPath
       id="clipPath1983"
       clipPathUnits="userSpaceOnUse">
      <path
         inkscape:connector-curvature="0"
         id="path1981"
         d="m 473.344,751.234 h 93.585 v 56.64 h -93.585 z" />
    </clipPath>
  </defs>
  <sodipodi:namedview
     id="base"
     pagecolor="#ffffff"
     bordercolor="#666666"
     borderopacity="1.0"
     inkscape:pageopacity="0.0"
     inkscape:pageshadow="2"
     inkscape:zoom="7.0578392"
     inkscape:cx="62.390065"
     inkscape:cy="37.759445"
     inkscape:document-units="mm"
     inkscape:current-layer="layer1"
     showgrid="false"
     fit-margin-top="0"
     fit-margin-left="0"
     fit-margin-right="0"
     fit-margin-bottom="0"
     units="px"
     inkscape:window-width="1280"
     inkscape:window-height="744"
     inkscape:window-x="-4"
     inkscape:window-y="-4"
     inkscape:window-maximized="1" />
  <metadata
     id="metadata2286">
    <rdf:RDF>
      <cc:Work
         rdf:about="">
        <dc:format>image/svg+xml</dc:format>
        <dc:type
           rdf:resource="http://purl.org/dc/dcmitype/StillImage" />
        <dc:title></dc:title>
      </cc:Work>
    </rdf:RDF>
  </metadata>
  <g
     inkscape:label="Layer 1"
     inkscape:groupmode="layer"
     id="layer1"
     transform="translate(4.0341087,-138.57827)">
    <g
       id="g2442"
       transform="translate(0.13229135,-0.13228643)">
      <g
         style="fill:#323e46;fill-opacity:1"
         id="g2427">
        <path
           inkscape:connector-curvature="0"
           id="path1987"
           style="fill:#323e46;fill-opacity:1;fill-rule:nonzero;stroke:none;stroke-width:0.35277778"
           d="m -1.2944365,155.45128 c 0.00811,-0.0744 0.010231,-0.14146 0.00706,-0.18838 -0.020108,-0.28716 -0.2007306,-0.37501 -0.574675,-0.34925 l -0.8949972,0.0624 -0.1986139,1.5554 0.9532055,-0.0716 c 0.5076472,-0.0353 0.6226528,-0.21096 0.663575,-0.58949 z m -0.8851194,1.73884 -0.8653639,0.0586 -0.1933222,1.51906 -0.7958667,0.0561 0.56515,-4.52932 1.6231305,-0.11289 c 0.90805003,-0.0635 1.35325557,0.26106 1.39523613,0.86184 0.005997,0.0871 0.004233,0.16087 -0.007761,0.27587 l -0.0649111,0.60819 c -0.0606778,0.57467 -0.23389167,0.88194 -0.78916393,1.09502 l 0.9736667,1.53988 -0.9214556,0.0642 z" />
        <path
           inkscape:connector-curvature="0"
           id="path1991"
           style="fill:#323e46;fill-opacity:1;fill-rule:nonzero;stroke:none;stroke-width:0.35277778"
           d="m 2.3115873,156.26669 c 0.00388,-0.0406 0.006,-0.1076 0.00318,-0.14781 -0.018697,-0.26706 -0.1957917,-0.40217 -0.5630333,-0.37677 -0.4205111,0.0293 -0.6342945,0.23883 -0.6798028,0.64452 l -0.0924278,0.88548 c -0.003881,0.0406 -0.00635,0.10089 -0.003175,0.14781 0.0179917,0.26035 0.1760361,0.41028 0.5633861,0.38312 0.4205111,-0.0293 0.6346472,-0.23178 0.6748639,-0.61701 z m -2.12760273,1.24178 c -0.005997,-0.0868 -0.005292,-0.17392 0.002117,-0.26176 l 0.085725,-0.79093 c 0.0910167,-0.81139 0.45155555,-1.31939 1.53987493,-1.39524 0.8343194,-0.0582 1.2608277,0.38171 1.3010444,0.95603 0.00529,0.0801 0.00388,0.15381 -0.00388,0.23495 l -0.093133,0.87842 c -0.080433,0.77046 -0.4074583,1.27635 -1.5490472,1.35607 -0.8413749,0.0586 -1.24248323,-0.40322 -1.28269989,-0.97754" />
        <path
           inkscape:connector-curvature="0"
           id="path1995"
           style="fill:#323e46;fill-opacity:1;fill-rule:nonzero;stroke:none;stroke-width:0.35277778"
           d="m 5.737518,155.52152 c -0.1488722,-0.0166 -0.3337278,-0.0339 -0.5005917,-0.0222 -0.5139972,0.036 -0.5778499,0.24906 -0.6215944,0.68156 l -0.1421694,1.16311 c -0.00388,0.0406 -0.00247,0.0603 -0.00106,0.0804 0.00847,0.1203 0.085725,0.16863 0.2324806,0.1584 0.2536472,-0.0176 0.6039555,-0.28363 0.8339666,-0.54786 z m 0.4847167,2.56611 -0.6741584,0.0469 -0.03175,-0.36018 c -0.2628194,0.2734 -0.5979583,0.47096 -1.0318749,0.5013 -0.5609167,0.0392 -0.7754056,-0.24765 -0.8060972,-0.68863 -0.00741,-0.10654 -0.00212,-0.22119 0.00953,-0.3429 l 0.1188861,-0.96132 c 0.092075,-0.89182 0.2483555,-1.37865 1.5035388,-1.46614 0.3136195,-0.0219 0.9606139,0.0557 1.30175,0.13935 z" />
        <path
           inkscape:connector-curvature="0"
           id="path1999"
           style="fill:#323e46;fill-opacity:1;fill-rule:nonzero;stroke:none;stroke-width:0.35277778"
           d="m 9.2041946,155.26219 c -0.149225,-0.0233 -0.3750028,-0.013 -0.4885972,-0.005 -0.5139972,0.036 -0.6332361,0.25223 -0.6769806,0.68474 l -0.1202972,1.1624 c -0.00388,0.0402 -0.00247,0.0603 -0.00106,0.0804 0.00847,0.12029 0.092075,0.16792 0.2391833,0.15769 0.3404306,-0.0236 0.7009695,-0.30516 0.8597194,-0.53093 z m 0.4473222,2.58198 -0.6808611,0.0473 -0.0254,-0.36054 c -0.2624666,0.27341 -0.5976055,0.47131 -1.0784416,0.50483 -0.5609167,0.0388 -0.7754056,-0.248 -0.8060972,-0.68862 -0.00741,-0.1069 -0.00176,-0.2212 0.00953,-0.3429 l 0.1008944,-0.95956 c 0.0889,-0.8449 0.2060222,-1.37618 1.4880166,-1.46579 0.1202973,-0.008 0.3855861,3.5e-4 0.5686778,0.0279 l 0.1725083,-1.34655 0.824442,-0.17675 z" />
        <path
           inkscape:connector-curvature="0"
           id="path2003"
           style="fill:#323e46;fill-opacity:1;fill-rule:nonzero;stroke:none;stroke-width:0.35277778"
           d="m 10.588107,157.57532 0.135467,-0.6537 c 0.436386,0.0974 0.809625,0.1584 1.223433,0.12947 0.627592,-0.0437 0.725311,-0.1845 0.7747,-0.63076 0.01199,-0.11501 0.0187,-0.2092 0.01376,-0.28293 -0.01623,-0.23354 -0.166864,-0.27658 -0.765175,-0.38912 -0.788105,-0.1397 -1.036461,-0.43109 -1.069269,-0.90522 -0.0095,-0.13335 3.53e-4,-0.28187 0.01587,-0.4438 0.101953,-0.9465 0.385939,-1.20121 1.554339,-1.28235 0.394053,-0.0275 0.824441,-0.0106 1.254125,0.0871 l -0.09243,0.69744 c -0.427567,-0.0709 -0.811742,-0.0977 -1.178983,-0.0723 -0.581025,0.0406 -0.688975,0.12841 -0.732014,0.56762 -0.01235,0.11501 -0.01905,0.2092 -0.01411,0.28293 0.01552,0.22013 0.167569,0.28328 0.738716,0.39123 0.815622,0.15099 1.078795,0.3676 1.112661,0.85478 0.0088,0.127 -0.0014,0.26847 -0.01623,0.43745 -0.09772,0.91263 -0.331964,1.30457 -1.607256,1.39311 -0.373944,0.0261 -0.967669,-0.0265 -1.347611,-0.18097" />
        <path
           inkscape:connector-curvature="0"
           id="path2007"
           style="fill:#323e46;fill-opacity:1;fill-rule:nonzero;stroke:none;stroke-width:0.35277778"
           d="m 18.293796,154.91763 c 0.0042,-0.0339 0.0018,-0.0741 7.06e-4,-0.0871 -0.006,-0.0868 -0.09772,-0.13335 -0.224367,-0.12453 -0.213783,0.0148 -0.607836,0.24236 -0.895703,0.4438 l -0.275872,2.19392 -0.820561,0.054 0.28575,-2.35056 c 0.0042,-0.0339 0.0014,-0.0737 7.05e-4,-0.0871 -0.006,-0.0868 -0.07055,-0.13052 -0.197202,-0.12135 -0.213784,0.0148 -0.599723,0.24059 -0.887589,0.44203 l -0.283986,2.19569 -0.801159,0.0557 0.414867,-3.23674 0.680861,-0.17145 -0.0568,0.41063 c 0.410986,-0.26352 0.906286,-0.47237 1.286933,-0.49882 0.340783,-0.0236 0.519642,0.13828 0.596547,0.37429 0.442031,-0.29915 0.932392,-0.48083 1.306336,-0.50694 0.447323,-0.031 0.668867,0.25612 0.693562,0.60995 0.0078,0.11325 0.0018,0.2212 -0.01094,0.3228 l -0.304447,2.37525 -0.801158,0.0557 z" />
        <path
           inkscape:connector-curvature="0"
           id="path2011"
           style="fill:#323e46;fill-opacity:1;fill-rule:nonzero;stroke:none;stroke-width:0.35277778"
           d="m 21.719233,154.39929 c -0.148872,-0.0166 -0.353836,-0.0279 -0.5207,-0.0162 -0.513997,0.0356 -0.599369,0.25612 -0.643114,0.68862 l -0.12065,1.1557 c -0.0039,0.0406 -0.0025,0.0603 -0.0011,0.0804 0.0085,0.12029 0.08537,0.16863 0.23248,0.15839 0.253648,-0.0176 0.630414,-0.29986 0.860425,-0.56409 z m 0.464608,2.57175 -0.674158,0.0469 -0.03175,-0.36019 c -0.262819,0.27341 -0.597958,0.47096 -1.031875,0.5013 -0.560917,0.0392 -0.775406,-0.24765 -0.806097,-0.68827 -0.0074,-0.10689 -0.0021,-0.22154 0.0095,-0.34325 l 0.100894,-0.95956 c 0.09208,-0.89182 0.266347,-1.38042 1.521531,-1.46791 0.313619,-0.0219 0.978605,0.0416 1.319741,0.12524 z" />
        <path
           inkscape:connector-curvature="0"
           id="path2015"
           style="fill:#323e46;fill-opacity:1;fill-rule:nonzero;stroke:none;stroke-width:0.35277778"
           d="m 24.997068,154.17644 c -0.366183,0.23354 -0.595842,0.40358 -0.927806,0.64841 l -0.246238,2.02988 -0.781403,0.0536 0.412397,-3.23885 0.631472,-0.15417 -3.53e-4,0.47661 c 0.215548,-0.18274 0.535164,-0.4064 0.801159,-0.53905 z" />
        <path
           inkscape:connector-curvature="0"
           id="path2019"
           style="fill:#323e46;fill-opacity:1;fill-rule:nonzero;stroke:none;stroke-width:0.35277778"
           d="m 25.611677,156.01858 0.245533,-1.92264 -0.580672,0.0409 0.0755,-0.64946 0.589138,-0.0459 0.113242,-0.8375 0.813506,-0.17074 -0.125589,0.9525 0.752828,-0.0476 -0.0822,0.64982 -0.754591,0.0522 -0.245886,1.88419 c -0.012,0.11465 0.01305,0.1651 0.13335,0.15663 0.160161,-0.0113 0.368652,-0.0995 0.550333,-0.18591 l 0.212019,0.53551 c -0.263525,0.16581 -0.616655,0.29775 -1.004005,0.32456 -0.507295,0.0356 -0.740128,-0.26388 -0.692503,-0.7366" />
      </g>
      <g
         style="fill:#00b3e1;fill-opacity:1"
         id="g2416">
        <path
           inkscape:connector-curvature="0"
           id="path2023"
           style="fill:#00b3e1;fill-opacity:1;fill-rule:nonzero;stroke:none;stroke-width:0.35277778"
           d="m 8.7449485,142.82737 c -0.020108,0.16792 -0.1964972,1.52329 -0.4162778,3.26602 -0.026105,0.20884 -0.1672166,0.27834 -0.2973916,0.27799 -1.1045472,-10e-4 -2.0327055,0 -2.1745222,0 -0.2183694,0 -0.3312583,-0.12065 -0.1816806,-0.33303 0.1245306,-0.17603 2.2249694,-3.0166 2.3396222,-3.18205 0.4399139,-0.63359 0.8089194,-0.68051 0.73025,-0.0289 m 12.4283605,2.69804 c -0.227541,0.2921 -0.464608,0.25436 -0.42298,-0.0942 0.140053,-1.17298 0.370416,-3.03636 0.501297,-4.07987 0.193675,-1.54129 -0.329494,-2.44158 -1.313744,-2.50437 -1.467909,-0.0938 -2.417939,1.41323 -3.903486,3.32246 -1.03505,1.33032 -2.728031,3.42053 -3.800828,4.75897 -0.232128,0.28928 -0.616656,0.32209 -0.540808,-0.29563 0.26423,-2.1597 0.551038,-4.5279 0.632177,-5.2264 0.180623,-1.55469 -0.677686,-2.53859 -2.6246663,-2.50719 -1.0170583,0.0166 -1.9522722,0.43462 -3.5069638,2.39712 -1.2322528,1.55611 -4.6058666,5.82048 -4.9392416,6.17961 -0.2169583,0.23389 -0.45367218,0.19332 -0.41169163,-0.11218 L 1.472082,142.23082 h -3.3930166 c 0,0 -0.5023555,3.58387 -0.7732889,5.96406 -0.1442861,1.26895 -0.536575,3.4283 0.9877778,4.03755 0.4907139,0.19649 1.04774996,0.17356 1.55786662,0.0349 0.72742776,-0.1972 1.40405548,-0.59443 1.92969438,-1.13524 0.69215,-0.71155 1.2449528,-1.51977 1.8266833,-2.31951 0.1675695,-0.23037 0.3245556,-0.37677 0.9630833,-0.37783 0.2405945,-3.5e-4 2.2503694,-0.004 3.0091944,-0.004 0.1834444,0 0.3996972,0.0843 0.3996972,0.3429 0,0.0233 0.00353,0.0402 0.00847,0.0547 0.045861,1.44039 0.600075,2.85468 2.8634965,2.70616 1.434042,-0.0942 2.365728,-1.45521 3.314347,-2.75379 0.369006,-0.50517 1.636889,-2.23943 2.770012,-3.76766 0.349602,-0.47167 0.464608,-0.34608 0.416277,0.0836 -0.148872,1.31762 -0.267052,2.19886 -0.355952,2.91006 -0.1778,1.42381 0.405694,2.7432 2.093383,2.61902 1.494719,-0.10971 2.418291,-1.16381 3.130197,-2.13748 0.643467,-0.88053 2.422525,-3.27871 2.533297,-3.42829 0.209197,-0.28258 0.430742,-0.37606 0.376767,0.0469 -0.113242,0.88794 -0.73272,5.31777 -0.73272,5.31777 0,0 1.853495,-0.12735 2.449336,-0.18239 0.798689,-0.0737 1.052337,-0.42298 1.130653,-1.24107 0,0 0.108303,-0.69144 0.217311,-1.66723 0,0 0.528461,-4.00755 0.697442,-5.34458 0.288219,-2.28282 -0.118886,-3.10056 -1.343378,-3.0861 -1.209675,0 -2.586919,1.8609 -3.1369,2.54353 z" />
        <path
           inkscape:connector-curvature="0"
           id="path2027"
           style="fill:#00b3e1;fill-opacity:1;fill-rule:nonzero;stroke:none;stroke-width:0.35277778"
           d="m 1.8909351,139.01959 h -2.38654161 c -0.76164719,0 -1.07068049,0.25647 -1.14899719,1.07456 l -0.1912056,1.35537 3.3965444,-0.004 z" />
      </g>
    </g>
  </g>
</svg>
